<svg xmlns="http://www.w3.org/2000/svg" viewBox="0 0 256 256" width="256" height="256">
  <!-- Rounded Squircle Base Card -->
  <rect x="2" y="2" width="252" height="252" rx="56" fill="#FAFAFA" stroke="#E8E8E8" stroke-width="2"/>
  
  <!-- Icon Graphics (Filled Vector Paths) -->

  <!-- Document Body -->
  <path d="M64 42 C64 36.5 68.5 32 74 32 H148 L192 76 V214 C192 219.5 187.5 224 182 224 H74 C68.5 224 64 219.5 64 214 Z" fill="#D51C1B"/>
  <!-- Folded Corner Flap -->
  <path d="M148 32 V70 C148 73.3 150.7 76 154 76 H192 Z" fill="#B71C1C"/>
  <!-- Header Bar -->
  <rect x="84" y="60" width="50" height="12" rx="6" fill="#FFFFFF"/>
  <!-- Itemized Rows -->
  <rect x="84" y="96" width="88" height="9" rx="4.5" fill="#FFFFFF"/>
  <rect x="84" y="118" width="88" height="9" rx="4.5" fill="#FFFFFF"/>
  <rect x="84" y="140" width="56" height="9" rx="4.5" fill="#FFFFFF"/>
  <!-- Currency Seal Stamp -->
  <circle cx="152" cy="174" r="28" fill="#FFFFFF"/>
  <circle cx="152" cy="174" r="23" fill="#D51C1B"/>
  <text x="152" y="183" font-family="-apple-system, BlinkMacSystemFont, 'Segoe UI', Roboto, sans-serif" font-weight="900" font-size="20" fill="#FFFFFF" text-anchor="middle">DA</text>

</svg>